<svg width="186" height="185" viewBox="0 0 186 185" fill="none" xmlns="http://www.w3.org/2000/svg">
<rect x="0.511475" width="185" height="185" rx="92.5" fill="#C4E8BB"/>
<rect x="10.1411" y="9.62964" width="165.741" height="165.741" rx="82.8704" fill="#FD8413"/>
<path d="M93.0115 50.4011L116.27 67.0113L119.503 69.3149V61.4138L93.0115 42.5L66.5402 61.4138V69.3149L69.7733 67.0113L93.0115 50.4011Z" fill="white"/>
<path d="M69.7733 71.9823V91.1386H116.27V71.9823L113.926 70.305L93.0115 55.3719L69.7733 71.9823ZM95.0322 67.0517V71.8206H99.8213C100.933 71.8206 101.842 72.7299 101.842 73.8413C101.842 74.9526 100.933 75.862 99.8213 75.862H95.0322V80.6511C95.0322 81.7624 94.1431 82.6718 93.0115 82.6718C91.9001 82.6718 90.9908 81.7624 90.9908 80.6511V75.862H86.2219C85.1105 75.862 84.2012 74.9526 84.2012 73.8413C84.2012 72.7299 85.1105 71.8206 86.2219 71.8206H90.9908V67.0517C90.9908 65.9201 91.9001 65.031 93.0115 65.031C94.1431 65.031 95.0322 65.9201 95.0322 67.0517Z" fill="white"/>
<path d="M69.3288 102.96H116.472C117.563 102.96 118.533 102.515 119.24 101.828C119.948 101.121 120.372 100.151 120.372 99.08C120.372 96.9178 118.634 95.18 116.472 95.18H69.3288C68.2577 95.18 67.2878 95.6044 66.5805 96.3116C65.8733 97.0188 65.4288 97.9888 65.4288 99.08C65.4288 101.222 67.1868 102.96 69.3288 102.96Z" fill="white"/>
<path d="M79.5738 44.056H72.5416V52.1591L79.5738 47.1275V44.056Z" fill="white"/>
<path d="M78.3969 114.578L71.134 110.433C69.7267 109.629 67.9372 110.062 67.0519 111.419C66.1476 112.805 66.5085 114.659 67.8666 115.605L73.7718 119.717C75.2242 120.632 73.9928 123.032 72.2032 122.159L58.8413 112.513L57.0226 95.9428C56.7918 93.7736 54.7426 92.2105 52.5002 92.6981C50.7544 93.0779 49.5864 94.7487 49.5864 96.5353V119.504L62.8827 134.801V142.5H81.0287V118.978C81.0287 117.138 80.0176 115.448 78.3969 114.578Z" fill="white"/>
<path d="M133.523 92.6981C131.28 92.2105 129.231 93.7736 129 95.9428L127.182 112.513L113.82 122.159C112.03 123.032 110.799 120.632 112.251 119.717L118.156 115.605C119.514 114.659 119.875 112.805 118.971 111.419C118.086 110.062 116.296 109.629 114.889 110.433L107.626 114.578C106.005 115.448 104.994 117.138 104.994 118.978V142.5H123.14V134.801L136.437 119.504V96.5353C136.437 94.7487 135.269 93.0779 133.523 92.6981Z" fill="white"/>
</svg>
