<svg width="186" height="185" viewBox="0 0 186 185" fill="none" xmlns="http://www.w3.org/2000/svg">
<rect x="0.511475" width="185" height="185" rx="92.5" fill="#C6E7BA"/>
<rect x="10.1411" y="9.62964" width="165.741" height="165.741" rx="82.8704" fill="#FD8413"/>
<path d="M123.287 124.791L123.281 124.798C117.743 130.598 110.6 134.698 102.96 136.494C95.3343 138.311 87.2678 137.978 80.0059 135.427C76.3735 134.167 72.922 132.411 69.791 130.206C66.6686 127.989 63.8549 125.355 61.4431 122.41C56.5899 116.531 53.5161 109.323 52.5296 101.927C51.5439 94.5089 52.7137 86.8791 55.681 80.1998C58.6569 73.5006 63.5438 67.8945 69.523 64.015C75.5264 60.1879 82.5477 58.0256 89.4844 58.0509C94.1982 58.0097 98.8986 58.9657 103.258 60.7383L97.7797 66.811L129.211 73.7739L119.463 42.7778L113.469 49.4215C105.813 45.8771 97.3307 44.2091 88.9516 44.8197C79.5068 45.428 70.4562 48.9099 62.9585 54.4122C55.4804 59.955 49.6235 67.7147 46.4345 76.3639C43.2337 85.0051 42.4486 94.4361 44.2045 103.342C45.9667 112.253 50.2197 120.559 56.282 127.023C59.3017 130.267 62.736 133.087 66.4688 135.392C70.2094 137.685 74.261 139.428 78.4522 140.587C82.6465 141.733 86.9826 142.315 91.2897 142.21C95.596 142.122 99.8678 141.435 103.954 140.184C112.136 137.699 119.503 132.78 124.939 126.304C125.316 125.854 125.289 125.178 124.863 124.764C124.42 124.331 123.714 124.344 123.287 124.792V124.791Z" fill="white"/>
<path d="M81.87 102.931V108.291H63.4624V104.058L72.3116 95.6931C73.1673 94.8733 73.7416 94.1739 74.0339 93.5933C74.3261 93.0128 74.4734 92.4274 74.4734 91.835C74.4734 91.0619 74.2141 90.4576 73.6962 90.0252C73.1782 89.5927 72.4245 89.3765 71.4333 89.3765C70.555 89.3765 69.7495 89.5761 69.0184 89.9745C68.2866 90.3729 67.6841 90.9479 67.2116 91.6988L62.2471 88.8989C63.1693 87.3512 64.4645 86.133 66.1311 85.2459C67.7969 84.358 69.7675 83.9145 72.0421 83.9145C73.8427 83.9145 75.4364 84.2107 76.8209 84.8024C78.2062 85.394 79.2867 86.2423 80.064 87.3456C80.8405 88.4498 81.2291 89.7305 81.2291 91.1871C81.2291 92.4845 80.9533 93.7082 80.4017 94.8574C79.8501 96.0075 78.786 97.3104 77.2103 98.767L72.752 102.932H81.8716L81.87 102.931Z" fill="white"/>
<path d="M105.952 103.717H102.439V108.291H95.9204V103.717H83.4238V99.3119L94.029 84.3913H100.953L91.3265 98.3559H96.1226V94.2927H102.439V98.3559H105.951V103.717H105.952Z" fill="white"/>
<path d="M116.794 79.5432H122.502L111.355 111.706H105.647L116.794 79.5432Z" fill="white"/>
<path d="M142.733 84.3913V88.6248L134.391 108.291H127.095L135.066 89.7519H128.852V93.4389H123.144V84.3913H142.734H142.733Z" fill="white"/>
</svg>
