<svg width="186" height="185" viewBox="0 0 186 185" fill="none" xmlns="http://www.w3.org/2000/svg">
<rect x="0.0114746" width="185" height="185" rx="92.5" fill="#C4E8BB"/>
<rect x="9.64111" y="9.62939" width="165.741" height="165.741" rx="82.8704" fill="#FD8413"/>
<path fill-rule="evenodd" clip-rule="evenodd" d="M99.5354 63.0585C102.651 63.8 105.627 65.0356 108.354 66.7147L114.084 64.1695L120.838 70.9234L118.294 76.6524C119.974 79.3802 121.209 82.3572 121.951 85.4736L127.797 87.724V97.2758L121.949 99.5268C121.208 102.643 119.972 105.619 118.293 108.346L120.838 114.076L114.084 120.831L108.356 118.286C105.628 119.966 102.651 121.201 99.5348 121.943L97.2848 127.789H87.7335L85.4825 121.941C82.3668 121.2 79.3911 119.965 76.6639 118.285L70.9335 120.831L64.1795 114.077L66.7239 108.348C65.0442 105.62 63.8089 102.643 63.0675 99.5264L57.2209 97.276V87.7242L63.0681 85.4736C63.8095 82.3576 65.0448 79.3812 66.7243 76.6538L64.1795 70.9238L70.9333 64.1697L76.6637 66.7149C79.3909 65.0358 82.3666 63.8002 85.4823 63.0587L87.7333 57.2108H97.2844L99.5354 63.0585ZM92.5091 72.7722C81.6145 72.7722 72.7822 81.6051 72.7822 92.5C72.7822 103.395 81.6145 112.228 92.5091 112.228C103.404 112.228 112.236 103.395 112.236 92.5C112.236 81.6051 103.404 72.7722 92.5091 72.7722ZM92.5091 75.9987C83.3958 75.9987 76.0083 83.3863 76.0083 92.5C76.0083 101.614 83.3956 109.001 92.5091 109.001C101.622 109.001 109.01 101.614 109.01 92.5C109.01 83.3865 101.622 75.9987 92.5091 75.9987ZM90.1298 94.0979L86.0824 90.0503C85.0334 89.0013 83.3317 89.0013 82.2828 90.0503C81.2338 91.0993 81.2338 92.8011 82.2828 93.8499L88.2358 99.8031C89.2847 100.852 90.9864 100.852 92.0352 99.8031C95.6233 96.2147 99.171 92.5861 102.743 88.9811C103.784 87.9301 103.781 86.2338 102.731 85.1899C101.681 84.1457 99.9803 84.1485 98.9377 85.2015L90.1298 94.0979ZM92.6427 139.286C69.6911 139.368 49.9171 122.671 46.3004 99.8106C42.9438 78.5954 54.6147 57.6909 74.297 49.4056L72.0899 53.5667C71.6758 54.3531 71.9776 55.3267 72.7642 55.7407C73.5507 56.1549 74.5242 55.853 74.9382 55.0664L79.0848 47.2483C79.6261 46.3306 79.1371 45.1289 78.0879 44.8665L69.4286 42.6955C68.5656 42.4798 67.6908 43.0045 67.4753 43.8676C67.2595 44.7306 67.7842 45.6054 68.6472 45.821L72.3279 46.7439C51.6851 55.8349 39.5795 77.9099 43.1244 100.315C46.991 124.755 68.1058 142.588 92.6427 142.5C93.5302 142.5 94.2497 141.78 94.2497 140.893C94.2495 140.005 93.5302 139.286 92.6427 139.286ZM116.371 139.179L112.687 138.255C133.42 129.139 145.445 107.131 141.894 84.6851C138.026 60.241 116.917 42.4104 92.3752 42.5003C91.4877 42.5003 90.7682 43.2198 90.7682 44.1073C90.7682 44.9948 91.4877 45.7143 92.3752 45.7143C115.336 45.6302 135.099 62.3203 138.718 85.1897C142.081 106.45 130.49 127.27 110.718 135.6L112.928 131.433C113.342 130.647 113.04 129.673 112.254 129.259C111.467 128.845 110.494 129.147 110.08 129.934L105.933 137.752C105.392 138.67 105.88 139.871 106.93 140.133L115.589 142.305C116.452 142.521 117.327 141.996 117.543 141.133C117.758 140.269 117.234 139.394 116.371 139.179Z" fill="white"/>
</svg>
