<svg width="186" height="185" viewBox="0 0 186 185" fill="none" xmlns="http://www.w3.org/2000/svg">
<rect x="0.0114746" width="185" height="185" rx="92.5" fill="#C4E8BB"/>
<rect x="9.64111" y="9.62939" width="165.741" height="165.741" rx="82.8704" fill="#FD8413"/>
<path fill-rule="evenodd" clip-rule="evenodd" d="M63.9762 68.7422V99.6035C63.9762 102.388 64.5836 104.658 65.9482 106.961C70.3345 114.356 83.7047 122.479 92.5119 127.681C101.318 122.479 114.691 114.356 119.075 106.961C120.439 104.658 121.047 102.388 121.047 99.6035V68.7422C110.361 65.4913 100.777 61.6198 92.5117 57.213C84.2453 61.6198 74.6612 65.4913 63.9757 68.7422H63.9762ZM110.789 77.8363C112.566 79.6161 112.566 82.5283 110.789 84.3078L87.8973 107.239C86.958 108.18 85.7501 108.591 84.433 108.417C83.1157 108.244 82.0554 107.534 81.3911 106.382L73.5095 92.7065C72.2532 90.527 73.0056 87.7139 75.1816 86.4557C77.3574 85.1972 80.1654 85.9509 81.4217 88.1304L86.0448 96.152L104.328 77.8365C106.105 76.057 109.012 76.057 110.789 77.8365L110.789 77.8363ZM92.5115 42.5C78.0899 51.5196 60.6285 56.6587 51.2416 59.0583V99.6015C51.2416 104.619 52.4426 109.159 55.001 113.474C62.0098 125.296 79.4712 134.603 92.5115 142.5C105.552 134.603 123.013 125.296 130.022 113.474C132.58 109.159 133.781 104.618 133.781 99.6015V59.0583C124.394 56.6587 106.933 51.5196 92.5115 42.5ZM126.473 99.6035C126.473 103.368 125.604 106.589 123.739 109.736C118.408 118.729 103.651 127.423 93.8874 133.177C93.4622 133.426 92.9867 133.55 92.5123 133.55C92.0379 133.55 91.5614 133.426 91.1362 133.177C81.3722 127.423 66.6177 118.729 61.285 109.736C59.4195 106.589 58.5508 103.368 58.5508 99.6035V66.7174C58.5508 65.5111 59.3448 64.4493 60.5 64.1107C72.1709 60.6843 82.5033 56.5233 91.2074 51.7424C92.0186 51.2959 93.0054 51.2959 93.8166 51.7424C102.521 56.5233 112.853 60.6841 124.524 64.1107C125.679 64.4493 126.473 65.5111 126.473 66.7174V99.6035H126.473Z" fill="white"/>
</svg>
