<svg width="186" height="185" viewBox="0 0 186 185" fill="none" xmlns="http://www.w3.org/2000/svg">
<rect x="0.511475" width="185" height="185" rx="92.5" fill="#C4E8BB"/>
<rect x="10.1411" y="9.62964" width="165.741" height="165.741" rx="82.8704" fill="#FD8413"/>
<path d="M106.849 57.1602C107.312 55.1128 107.312 52.988 106.849 50.9406H125.113V57.1602H106.849ZM65.511 59.7975H80.0325C81.1457 62.3093 82.9641 64.4439 85.267 65.9423C87.5699 67.4406 90.2582 68.2382 93.0057 68.2382C95.7531 68.2382 98.4414 67.4406 100.744 65.9423C103.047 64.4439 104.866 62.3093 105.979 59.7975H120.505V87.4682C117.59 88.1403 114.932 89.6445 112.855 91.7981C110.719 94.0029 109.235 96.8592 108.979 99.9231C108.904 99.7951 108.83 99.6615 108.75 99.5324V95.957C108.749 95.0404 108.643 94.1269 108.434 93.2344C107.912 90.9679 106.691 88.9229 104.943 87.3885C103.127 85.8019 100.798 84.9276 98.387 84.9275C97.6238 84.9284 96.863 85.0125 96.1181 85.1785C96.1016 85.1776 96.0853 85.1739 96.07 85.1678C95.7539 85.0651 95.4483 84.9328 95.1571 84.7727C93.4002 83.8714 91.4566 83.3942 89.4821 83.3793C87.1576 83.3837 84.8861 84.0747 82.9528 85.3654C81.2125 86.5326 79.7844 88.1081 78.7933 89.9544C77.8023 91.8007 77.2784 93.8616 77.2675 95.957V99.5606C77.2089 99.6566 77.1503 99.7475 77.0966 99.8436C76.8105 100.347 76.5865 100.883 76.4292 101.44C76.4235 101.431 76.4163 101.424 76.4079 101.418V99.2082C76.4021 97.3028 75.6554 95.4743 74.3257 94.1096C74.8757 92.3693 74.219 90.6609 72.6815 89.6197C71.4001 88.7549 68.8589 88.5467 67.3427 88.4879C66.7341 88.4613 66.1255 88.4506 65.5114 88.4613L65.511 59.7975ZM108.675 78.307H114.313V72.6639H108.675V78.307ZM96.3478 78.307H101.991V72.6639H96.3479L96.3478 78.307ZM84.0261 78.307H89.6638V72.6639H84.0267L84.0261 78.307ZM71.6989 78.307H77.3419V72.6639H71.6991L71.6989 78.307ZM81.4583 54.0531C81.4578 51.7684 82.1348 49.5349 83.4037 47.635C84.6727 45.7352 86.4766 44.2543 88.5873 43.3797C90.698 42.5052 93.0206 42.2762 95.2614 42.7218C97.5022 43.1674 99.5605 44.2675 101.176 45.883C102.792 47.4986 103.892 49.5569 104.337 51.7977C104.783 54.0385 104.554 56.3611 103.679 58.4718C102.805 60.5825 101.324 62.3864 99.424 63.6553C97.5242 64.9243 95.2906 65.6013 93.006 65.6008C89.9454 65.594 87.0122 64.3752 84.848 62.211C82.6839 60.0469 81.4651 57.1137 81.4583 54.0531ZM86.1671 56.7813H90.2778V60.892H95.7341V56.7813H99.8503V51.325H95.7341V47.2088H90.2778V51.325H86.1671V56.7813ZM78.821 54.0531C78.8199 53.0062 78.9347 51.9623 79.1634 50.9406H60.8987V57.1602H79.1634C78.935 56.1403 78.8202 55.0983 78.821 54.0531ZM69.6276 128.513C69.5549 128.584 69.4972 128.67 69.4578 128.764C69.4184 128.859 69.3982 128.96 69.3982 129.062C69.3982 129.165 69.4184 129.266 69.4578 129.36C69.4972 129.455 69.5549 129.54 69.6276 129.612C69.6996 129.685 69.7852 129.743 69.8796 129.782C69.9739 129.821 70.0752 129.842 70.1774 129.842C70.3316 129.842 70.4824 129.797 70.6106 129.711C70.7389 129.626 70.8388 129.504 70.8978 129.361C70.9567 129.219 70.972 129.062 70.9417 128.911C70.9113 128.76 70.8368 128.621 70.7274 128.513C70.6559 128.439 70.5703 128.381 70.4758 128.342C70.3813 128.302 70.2798 128.282 70.1774 128.283C70.075 128.282 69.9734 128.302 69.8789 128.341C69.7843 128.381 69.6988 128.439 69.6276 128.513ZM139.538 135.65C139.538 136 139.399 136.335 139.151 136.582C138.904 136.829 138.569 136.968 138.22 136.969H114.607C114.515 135.631 114.385 134.242 114.194 132.861C114.451 132.835 114.695 132.733 114.894 132.569C115.093 132.405 115.24 132.185 115.315 131.938C115.391 131.691 115.392 131.427 115.318 131.18C115.244 130.932 115.099 130.712 114.9 130.547L114.601 130.296L114.986 127.722C115.007 127.544 115.097 127.382 115.236 127.269C115.396 127.154 115.587 127.093 115.783 127.093C115.98 127.093 116.171 127.154 116.33 127.269C116.468 127.383 116.558 127.545 116.581 127.722L116.966 130.296L116.661 130.547C116.394 130.771 116.226 131.093 116.196 131.441C116.165 131.788 116.274 132.134 116.499 132.402C116.723 132.669 117.045 132.837 117.393 132.867C117.74 132.898 118.086 132.789 118.354 132.565L118.845 132.155C119.121 131.925 119.337 131.632 119.475 131.3C119.619 130.953 119.667 130.573 119.614 130.201L119.192 127.344C119.07 126.526 118.652 125.781 118.018 125.251C117.745 125.017 117.435 124.831 117.1 124.701V118.828C116.224 118.956 115.349 119.111 114.468 119.293V124.701C114.134 124.836 113.822 125.022 113.544 125.251C113.164 125.569 112.859 125.968 112.653 126.419C112.378 125.693 112.048 124.991 111.665 124.316C111.212 123.52 110.67 122.778 110.047 122.106C110.724 121.128 111.606 120.31 112.631 119.709C111.837 119.194 111.203 118.467 110.8 117.611C110.312 116.565 110.204 115.381 110.496 114.263C110.875 112.806 111.179 111.471 111.409 110.211C111.59 109.181 111.724 108.193 111.804 107.211C111.371 106.728 111.057 106.15 110.886 105.524C110.587 104.444 110.729 103.29 111.281 102.315C111.386 102.136 111.502 101.963 111.628 101.797C111.596 101.477 111.575 101.168 111.575 100.863C111.575 98.2045 112.818 95.6313 114.751 93.6346C116.646 91.6699 119.236 90.2557 121.98 89.8762C122.957 89.7337 123.949 89.7337 124.927 89.8762C127.666 90.2551 130.255 91.6699 132.155 93.6346C134.089 95.6313 135.327 98.2049 135.327 100.863C135.327 101.17 135.309 101.477 135.273 101.781C135.794 102.44 136.107 103.24 136.172 104.078C136.236 104.915 136.05 105.753 135.636 106.485C135.484 106.75 135.305 106.999 135.102 107.227C135.177 108.199 135.316 109.192 135.497 110.217C135.727 111.477 136.031 112.806 136.405 114.263C136.699 115.38 136.593 116.564 136.106 117.611C135.703 118.467 135.069 119.194 134.275 119.709C137.457 121.674 139.16 124.706 139.529 135.49C139.533 135.544 139.538 135.597 139.538 135.65ZM114.324 102.936C114.187 102.996 114.06 103.075 113.944 103.17C113.911 103.203 113.876 103.233 113.838 103.261C113.637 103.462 113.492 103.712 113.418 103.987C113.344 104.261 113.343 104.55 113.416 104.825C113.506 105.143 113.69 105.426 113.944 105.637C113.962 105.647 113.978 105.66 113.993 105.674C114.035 105.706 114.083 105.732 114.126 105.764V105.578C114.142 104.694 114.208 103.811 114.324 102.935V102.936ZM132.577 102.93C132.697 103.808 132.763 104.692 132.774 105.578V105.771C133.014 105.632 133.211 105.431 133.346 105.188C133.556 104.821 133.611 104.386 133.5 103.978C133.422 103.704 133.273 103.455 133.068 103.257C133.036 103.23 132.999 103.198 132.966 103.166C132.899 103.109 132.825 103.059 132.748 103.017C132.692 102.984 132.635 102.955 132.577 102.93V102.93ZM125.491 117.483C124.844 117.709 124.165 117.832 123.48 117.846H123.442C122.754 117.837 122.072 117.714 121.424 117.483V118.492C121.43 119.028 121.646 119.54 122.027 119.917C122.408 120.294 122.922 120.506 123.458 120.506C123.994 120.506 124.509 120.294 124.89 119.917C125.271 119.54 125.487 119.028 125.492 118.492L125.491 117.483ZM127.088 113.382C128.406 112.085 129.41 110.366 129.762 108.818C130.024 107.765 130.153 106.684 130.147 105.599C130.12 104.364 129.992 103.134 129.762 101.92C129.753 101.883 129.746 101.846 129.741 101.808C129.704 101.579 129.656 101.344 129.608 101.098C128.087 101.26 126.551 101.172 125.059 100.837C123.613 100.505 122.267 99.8354 121.13 98.8834C120.624 99.3583 120.052 99.7575 119.432 100.069C118.772 100.381 118.076 100.612 117.36 100.757C116.928 102.888 116.763 104.404 116.752 105.6C116.747 106.685 116.878 107.766 117.141 108.819C117.489 110.367 118.492 112.086 119.816 113.383L119.88 113.448C120.16 113.717 120.458 113.967 120.772 114.195C120.834 114.233 120.893 114.276 120.948 114.323C121.754 114.868 122.613 115.209 123.452 115.22C124.3 115.209 125.17 114.857 125.988 114.291C126.028 114.26 126.071 114.231 126.116 114.206C126.457 113.953 126.782 113.678 127.089 113.382H127.088ZM134.482 127.744C134.483 127.295 134.394 126.851 134.222 126.437C134.05 126.022 133.797 125.646 133.478 125.331C133.166 125.015 132.795 124.764 132.384 124.594V119.271C131.509 119.084 130.628 118.929 129.748 118.802V124.595C129.338 124.765 128.966 125.016 128.654 125.332C128.258 125.729 127.966 126.218 127.804 126.754C127.642 127.291 127.615 127.86 127.725 128.41C127.835 128.96 128.078 129.474 128.434 129.907C128.79 130.341 129.248 130.679 129.766 130.894C130.284 131.108 130.847 131.192 131.405 131.137C131.963 131.082 132.499 130.891 132.966 130.579C133.432 130.268 133.815 129.846 134.08 129.352C134.344 128.858 134.483 128.306 134.484 127.745L134.482 127.744ZM70.1774 132.479C70.8027 132.48 71.4159 132.308 71.9499 131.983C71.6354 134.072 71.4289 136.177 71.3313 138.288H47.7976V138.282H47.7548C47.4068 138.27 47.0779 138.121 46.84 137.867C46.602 137.612 46.4745 137.274 46.4852 136.926C46.9069 124.119 49.1919 122.165 53.5751 120.04V126.019C53.2435 126.156 52.9341 126.341 52.6571 126.569C52.0237 127.1 51.6074 127.845 51.4876 128.662L51.0659 131.518C51.0124 131.891 51.0603 132.271 51.2046 132.618C51.3427 132.949 51.5588 133.242 51.8345 133.472L52.3257 133.882C52.5934 134.105 52.9386 134.213 53.2854 134.181C53.6323 134.15 53.9525 133.982 54.1758 133.715C54.3992 133.448 54.5075 133.103 54.4769 132.756C54.4463 132.409 54.2794 132.088 54.0128 131.864L53.7138 131.613L54.0929 129.04C54.1193 128.864 54.2084 128.702 54.3438 128.586C54.5017 128.467 54.6957 128.405 54.8936 128.411C55.0919 128.403 55.2866 128.465 55.4436 128.586C55.5816 128.7 55.6713 128.863 55.6944 129.04L56.0735 131.613L55.7745 131.864C55.511 132.09 55.3471 132.41 55.3185 132.756C55.2899 133.102 55.399 133.445 55.6219 133.711C55.8448 133.977 56.1637 134.144 56.5091 134.176C56.8546 134.208 57.1988 134.103 57.4669 133.882L57.9581 133.472C58.2336 133.242 58.4494 132.949 58.5872 132.617C58.7315 132.27 58.7794 131.89 58.7259 131.517L58.2987 128.662C58.1807 127.844 57.7643 127.099 57.1298 126.569C56.8557 126.337 56.5456 126.152 56.2118 126.019V118.775C56.42 118.673 56.6442 118.556 56.8897 118.428C57.2208 118.246 57.5571 118.059 57.8987 117.861V117.307C57.6158 117.081 57.345 116.84 57.0874 116.586V116.58C55.4216 114.952 54.1458 112.737 53.6866 110.713C53.628 110.446 53.5694 110.179 53.5157 109.907C53.4784 109.902 53.4356 109.896 53.3929 109.891C52.5925 109.762 51.8461 109.406 51.2425 108.865C50.639 108.324 50.2038 107.621 49.9889 106.839C49.7739 106.057 49.7883 105.23 50.0303 104.457C50.2722 103.683 50.7316 102.995 51.3536 102.475V99.2082C51.3536 94.35 56.0304 92.2465 60.8831 91.4725C62.9849 91.1542 65.1121 91.0362 67.2362 91.1199C69.2063 91.2 70.7544 91.499 71.203 91.8086C71.8329 92.2305 72.0306 92.775 71.7636 93.4422C71.7516 93.4805 71.7373 93.518 71.7208 93.5545C71.6407 93.7199 71.545 93.9121 71.4325 94.1209C71.2938 94.3879 71.1335 94.6922 71.0224 94.9645C71.7479 95.2924 72.3781 95.7995 72.8536 96.4381C73.4522 97.2379 73.7762 98.2098 73.7772 99.2088V102.476C74.5356 103.111 75.0472 103.992 75.2228 104.966C75.3984 105.94 75.2269 106.944 74.7382 107.804C74.3016 108.578 73.6305 109.193 72.8216 109.561C72.438 109.737 72.0296 109.854 71.6106 109.908C71.5573 110.18 71.504 110.447 71.4397 110.714C70.986 112.705 69.7474 114.883 68.1138 116.512C68.0893 116.535 68.0662 116.56 68.0444 116.586C67.788 116.837 67.5159 117.078 67.2436 117.296V117.873C67.8042 118.205 68.3433 118.492 68.8612 118.749V125.913C68.4493 126.083 68.0754 126.334 67.7614 126.65C67.2845 127.128 66.9599 127.737 66.8288 128.399C66.6976 129.062 66.7657 129.748 67.0245 130.372C67.2832 130.996 67.7211 131.529 68.2826 131.904C68.8442 132.279 69.5044 132.48 70.1798 132.48L70.1774 132.479ZM71.6884 104.253C71.8088 105.129 71.8748 106.012 71.886 106.896V107.088C72.121 106.947 72.3157 106.747 72.4511 106.509C72.5866 106.271 72.6583 106.001 72.6594 105.727C72.6605 105.453 72.5908 105.183 72.4572 104.944C72.3236 104.704 72.1305 104.503 71.8966 104.36C71.8485 104.333 71.8005 104.312 71.7577 104.285C71.7364 104.275 71.7151 104.264 71.6884 104.253ZM53.4352 104.253C53.4138 104.264 53.3925 104.269 53.3712 104.28C53.3255 104.311 53.2772 104.337 53.227 104.36C52.9963 104.5 52.8052 104.697 52.6718 104.931C52.4671 105.294 52.4117 105.722 52.5175 106.125C52.6232 106.527 52.8818 106.873 53.2382 107.088V106.896C53.2545 106.012 53.3203 105.13 53.4352 104.253ZM64.604 118.801C63.9564 119.028 63.277 119.15 62.5911 119.164H62.5538C61.8663 119.155 61.1848 119.034 60.5358 118.807V119.81C60.5411 120.346 60.7577 120.859 61.1386 121.236C61.5195 121.613 62.0339 121.825 62.5699 121.825C63.106 121.825 63.6203 121.613 64.0012 121.236C64.3821 120.859 64.5987 120.346 64.604 119.81V118.801ZM66.2642 114.637C67.5509 113.356 68.5278 111.663 68.8749 110.137C69.1362 109.084 69.2653 108.002 69.2593 106.917C69.2159 105.404 69.0354 103.898 68.72 102.417C67.1997 102.579 65.6631 102.491 64.1714 102.155C62.7259 101.823 61.3795 101.154 60.2421 100.202C59.7362 100.677 59.1644 101.076 58.5444 101.387C57.8851 101.702 57.1893 101.933 56.4729 102.076C56.0405 104.206 55.8751 105.722 55.8643 106.918C55.8584 108.003 55.9876 109.084 56.2487 110.137C56.6063 111.69 57.6048 113.409 58.9235 114.701H58.929C59.2346 115.002 59.563 115.279 59.9112 115.529C59.9543 115.556 59.9954 115.586 60.0341 115.62C60.8509 116.18 61.7159 116.527 62.5647 116.538C63.4136 116.527 64.2835 116.175 65.1007 115.609C65.1403 115.576 65.1833 115.547 65.2288 115.523C65.5694 115.272 65.8922 114.997 66.195 114.701C66.2193 114.681 66.2424 114.66 66.2642 114.637ZM75.431 122.731C74.3845 121.513 73.071 120.778 71.4962 120.013V125.912C71.9063 126.082 72.2782 126.332 72.5899 126.648C72.7711 126.827 72.9306 127.025 73.0649 127.241C73.391 126.233 73.8167 125.26 74.3356 124.337C74.6576 123.773 75.0238 123.236 75.431 122.731ZM131.066 126.964C130.912 126.964 130.761 127.009 130.633 127.095C130.504 127.18 130.405 127.302 130.346 127.445C130.287 127.587 130.271 127.744 130.302 127.895C130.332 128.046 130.407 128.185 130.516 128.294C130.588 128.366 130.674 128.423 130.768 128.462C130.863 128.501 130.964 128.521 131.066 128.521C131.168 128.521 131.269 128.501 131.363 128.462C131.458 128.423 131.543 128.366 131.616 128.294C131.688 128.221 131.745 128.136 131.784 128.041C131.823 127.947 131.843 127.846 131.843 127.744C131.843 127.642 131.823 127.541 131.784 127.446C131.745 127.352 131.688 127.266 131.616 127.194C131.544 127.121 131.459 127.063 131.364 127.023C131.27 126.984 131.168 126.964 131.066 126.964ZM101.351 130.771C101.237 130.883 101.147 131.017 101.086 131.165C101.025 131.312 100.993 131.471 100.993 131.63C100.993 131.79 101.025 131.948 101.086 132.096C101.147 132.243 101.237 132.377 101.351 132.49C101.521 132.66 101.738 132.777 101.974 132.824C102.21 132.871 102.455 132.847 102.678 132.755C102.901 132.663 103.091 132.507 103.225 132.307C103.359 132.107 103.431 131.871 103.431 131.63C103.431 131.389 103.359 131.154 103.225 130.954C103.091 130.753 102.901 130.597 102.678 130.505C102.455 130.413 102.21 130.389 101.974 130.437C101.738 130.484 101.521 130.6 101.351 130.771ZM112.162 141.027C112.168 141.078 112.171 141.13 112.172 141.181C112.172 141.355 112.138 141.526 112.072 141.686C112.006 141.846 111.909 141.992 111.786 142.114C111.664 142.237 111.518 142.334 111.358 142.4C111.198 142.466 111.027 142.5 110.853 142.5H75.164V142.495H75.1204C74.9482 142.49 74.7786 142.451 74.6214 142.38C74.4642 142.31 74.3225 142.209 74.2045 142.083C74.0864 141.958 73.9943 141.81 73.9334 141.649C73.8725 141.488 73.8441 141.316 73.8497 141.144C74.3575 125.683 77.1171 123.451 82.4239 120.9V128.145C81.9812 128.295 81.5705 128.527 81.213 128.828C80.5004 129.425 80.0313 130.263 79.8942 131.182L79.3864 134.637C79.3266 135.038 79.3764 135.447 79.5306 135.822C79.6816 136.183 79.9179 136.501 80.2192 136.751L80.8118 137.242C80.9443 137.353 81.0974 137.437 81.2623 137.489C81.4273 137.541 81.601 137.56 81.7733 137.545C81.9456 137.53 82.1132 137.481 82.2666 137.401C82.4199 137.321 82.556 137.211 82.6669 137.079C82.7779 136.946 82.8616 136.793 82.9132 136.627C82.9648 136.462 82.9833 136.289 82.9677 136.116C82.9521 135.944 82.9027 135.777 82.8222 135.623C82.7418 135.47 82.6319 135.334 82.4989 135.224L82.0185 134.823L82.4989 131.567C82.5412 131.286 82.6834 131.03 82.8993 130.846C83.1392 130.658 83.4378 130.559 83.7429 130.569C84.0448 130.558 84.3404 130.657 84.5757 130.846C84.7957 131.028 84.9404 131.285 84.9815 131.567L85.462 134.823L84.9815 135.224C84.847 135.334 84.7357 135.47 84.654 135.623C84.5723 135.777 84.5218 135.945 84.5054 136.118C84.4891 136.291 84.5072 136.465 84.5587 136.631C84.6103 136.797 84.6942 136.952 84.8057 137.085C84.9172 137.218 85.054 137.328 85.2083 137.408C85.3625 137.489 85.5311 137.537 85.7043 137.552C85.8775 137.567 86.0519 137.547 86.2174 137.494C86.3829 137.44 86.5362 137.355 86.6685 137.242L87.261 136.751C87.564 136.503 87.8007 136.184 87.9499 135.822C88.1041 135.447 88.1539 135.038 88.094 134.637L87.5862 131.182C87.4867 130.492 87.1975 129.842 86.7509 129.306C86.3044 128.769 85.7178 128.368 85.0565 128.145V119.645C85.4249 119.463 85.8253 119.261 86.2792 119.02C86.7284 118.78 87.1813 118.523 87.6464 118.251V117.29C87.3046 117.018 86.9735 116.729 86.6587 116.425C86.6333 116.401 86.6065 116.378 86.5786 116.356C84.6032 114.423 83.0923 111.797 82.5477 109.394C82.4356 108.898 82.3288 108.401 82.2435 107.878H82.2327C81.8445 107.775 81.4713 107.623 81.1224 107.424C80.596 107.126 80.1337 106.727 79.7618 106.25C79.3899 105.773 79.1158 105.227 78.9551 104.644C78.7945 104.061 78.7504 103.451 78.8255 102.851C78.9006 102.251 79.0933 101.671 79.3927 101.146C79.5401 100.886 79.7117 100.641 79.9052 100.414V95.957C79.9149 94.2968 80.3306 92.664 81.1159 91.2012C81.9013 89.7384 83.0325 88.4899 84.411 87.5645C85.9119 86.5594 87.6766 86.0208 89.4829 86.0164C91.0466 86.0285 92.5851 86.4108 93.9726 87.132C94.4144 87.3653 94.8771 87.5565 95.3548 87.7031C95.7544 87.8341 96.181 87.8599 96.5935 87.7779C97.1811 87.6377 97.783 87.566 98.3872 87.5643C100.163 87.564 101.878 88.2091 103.213 89.3795C104.543 90.5509 105.471 92.1102 105.867 93.8373C106.03 94.5321 106.112 95.2434 106.113 95.957V100.399C106.736 101.119 107.121 102.015 107.216 102.963C107.31 103.911 107.11 104.865 106.641 105.695C106.333 106.233 105.92 106.704 105.427 107.08C104.933 107.456 104.37 107.729 103.769 107.884C103.683 108.402 103.582 108.898 103.465 109.395C102.931 111.76 101.447 114.349 99.5087 116.276C99.4817 116.303 99.4604 116.33 99.4339 116.356C99.0998 116.683 98.7487 116.991 98.3821 117.28V118.262C99.2683 118.785 100.101 119.223 100.891 119.613V128.011C100.042 128.321 99.3297 128.92 98.8784 129.703C98.4271 130.486 98.2659 131.402 98.4233 132.292C98.5806 133.182 99.0463 133.988 99.7387 134.569C100.431 135.15 101.306 135.468 102.21 135.468C103.113 135.468 103.988 135.15 104.681 134.569C105.373 133.988 105.839 133.182 105.996 132.292C106.153 131.402 105.992 130.486 105.541 129.703C105.09 128.92 104.377 128.321 103.528 128.011V120.867C108.857 123.425 111.638 125.608 112.161 141.027H112.162ZM103.78 101.808C103.915 102.815 103.988 103.83 103.999 104.846V104.851C104.139 104.719 104.258 104.566 104.35 104.397C104.572 104.012 104.656 103.564 104.591 103.125C104.525 102.686 104.312 102.282 103.987 101.979C103.95 101.947 103.907 101.915 103.875 101.883C103.844 101.855 103.812 101.836 103.78 101.808L103.78 101.808ZM82.2327 101.819C82.2061 101.84 82.1794 101.856 82.1581 101.877C82.1161 101.919 82.0715 101.958 82.0245 101.994C81.8875 102.126 81.7706 102.278 81.6776 102.444C81.4625 102.824 81.3789 103.264 81.4397 103.696C81.5005 104.129 81.7024 104.529 82.014 104.835C82.03 103.826 82.1029 102.819 82.2323 101.819L82.2327 101.819ZM95.7505 118.833C94.8883 119.184 93.9691 119.374 93.0384 119.394H92.9956C92.0652 119.376 91.1459 119.188 90.2835 118.838V120.446C90.3016 121.158 90.5975 121.836 91.1082 122.334C91.6188 122.832 92.3038 123.111 93.017 123.111C93.7302 123.111 94.4152 122.832 94.9258 122.334C95.4365 121.836 95.7324 121.158 95.7505 120.446V118.833ZM97.6618 114.407C99.2579 112.822 100.47 110.718 100.902 108.818C101.224 107.524 101.382 106.195 101.372 104.862C101.361 103.436 101.169 101.632 100.673 99.1279C98.7841 99.3589 96.8699 99.2632 95.0138 98.8449C93.2276 98.4369 91.571 97.5912 90.1929 96.384C89.5595 97.0137 88.8296 97.5382 88.0308 97.9377C87.1988 98.3316 86.3195 98.6168 85.4147 98.7863C84.8649 101.466 84.6565 103.372 84.6405 104.862C84.6337 106.195 84.7916 107.524 85.1104 108.818C85.5481 110.74 86.7921 112.87 88.4257 114.472L88.4897 114.536C88.8446 114.882 89.2247 115.201 89.6269 115.491C89.6908 115.529 89.7515 115.572 89.8085 115.62C90.8335 116.319 91.928 116.757 93.0063 116.767C94.1001 116.757 95.2112 116.308 96.247 115.588C96.2866 115.555 96.3296 115.526 96.3751 115.502C96.8067 115.189 97.2136 114.843 97.5923 114.467C97.6142 114.446 97.6373 114.426 97.6614 114.408L97.6618 114.407Z" fill="white"/>
</svg>
