<svg width="91" height="90" viewBox="0 0 91 90" fill="none" xmlns="http://www.w3.org/2000/svg">
<path d="M67.1157 67.7302L67.1112 67.7347C63.1578 71.8175 58.0576 74.7032 52.6033 75.9677C47.1584 77.2467 41.3992 77.0125 36.2145 75.2167C33.621 74.3297 31.1568 73.0936 28.9213 71.5415C26.692 69.9809 24.6832 68.1272 22.9613 66.0543C19.4962 61.9157 17.3016 56.8422 16.5973 51.6359C15.8936 46.4141 16.7288 41.0434 18.8473 36.3417C20.972 31.6261 24.4611 27.6799 28.73 24.9491C33.0163 22.2551 38.0292 20.733 42.9818 20.7509C46.3473 20.7219 49.7032 21.3948 52.8158 22.6426L48.9044 26.9172L71.3449 31.8185L64.3858 10L60.1062 14.6766C54.6401 12.1816 48.5838 11.0075 42.6014 11.4373C35.8581 11.8655 29.3963 14.3164 24.0432 18.1896C18.7041 22.0912 14.5224 27.5533 12.2456 33.6416C9.96035 39.7243 9.39981 46.3628 10.6535 52.6317C11.9116 58.9045 14.9481 64.7513 19.2764 69.3013C21.4324 71.5844 23.8843 73.5698 26.5494 75.1922C29.2201 76.8063 32.1128 78.0334 35.1052 78.8491C38.0997 79.6558 41.1956 80.0656 44.2707 79.9914C47.3453 79.9296 50.3952 79.4456 53.3126 78.5653C59.1541 76.8157 64.4137 73.3535 68.2955 68.7951C68.5641 68.4784 68.545 68.0023 68.2413 67.7107C67.9246 67.4063 67.4206 67.4152 67.1157 67.7308V67.7302Z" fill="#FFF500"/>
<path d="M37.5454 52.3423V56.1157H24.4029V53.1357L30.721 47.2476C31.3319 46.6705 31.742 46.1782 31.9506 45.7696C32.1593 45.3609 32.2645 44.9489 32.2645 44.5318C32.2645 43.9877 32.0793 43.5623 31.7095 43.2579C31.3397 42.9535 30.8016 42.8013 30.0939 42.8013C29.4668 42.8013 28.8917 42.9418 28.3698 43.2222C27.8473 43.5026 27.4171 43.9074 27.0798 44.436L23.5353 42.4651C24.1937 41.3757 25.1184 40.5182 26.3083 39.8937C27.4976 39.2687 28.9046 38.9565 30.5286 38.9565C31.8141 38.9565 32.952 39.165 33.9405 39.5815C34.9295 39.998 35.701 40.5951 36.2559 41.3718C36.8103 42.149 37.0878 43.0505 37.0878 44.0758C37.0878 44.989 36.8909 45.8504 36.497 46.6594C36.1032 47.4689 35.3435 48.3861 34.2185 49.4114L31.0354 52.3434H37.5465L37.5454 52.3423Z" fill="#FFF500"/>
<path d="M54.7392 52.8954H52.2313V56.1157H47.5769V52.8954H38.6547V49.7949L46.2265 39.2922H51.1701L44.297 49.122H47.7212V46.2619H52.2307V49.122H54.7386V52.8954H54.7392Z" fill="#FFF500"/>
<path d="M62.4798 35.8795H66.5552L58.5969 58.5192H54.5215L62.4798 35.8795Z" fill="#FFF500"/>
<path d="M80.9994 39.2922V42.2722L75.0433 56.1157H69.8345L75.5255 43.0655H71.0888V45.6609H67.0134V39.2922H81H80.9994Z" fill="#FFF500"/>
</svg>
