<svg width="28" height="29" viewBox="0 0 28 29" fill="none" xmlns="http://www.w3.org/2000/svg">
<g id="Vector">
<path d="M26.6521 11.4275V26.0108C26.6563 26.5848 26.4853 27.1464 26.1621 27.6208C26.0583 27.785 25.937 27.9376 25.8005 28.0758L14.2272 16.5024L13.8188 16.0941L21.7871 8.12577L22.2888 8.44077L26.3721 10.9258C26.5459 11.0334 26.6517 11.2231 26.6521 11.4275Z" fill="#CFD8DC"/>
<path d="M21.7871 8.12577L13.4105 16.5024L1.83719 28.0758C1.70058 27.9376 1.57934 27.785 1.47555 27.6208C1.15234 27.1464 0.981391 26.5848 0.985548 26.0108V7.34412C0.985548 5.73331 2.29137 4.42748 3.90219 4.42748H15.5688C15.6748 4.43109 15.7786 4.45904 15.8722 4.50913L21.2855 7.81077L21.7871 8.12577Z" fill="#40A459"/>
<path d="M25.8005 28.0758C25.6623 28.2124 25.5098 28.3337 25.3455 28.4374C24.8711 28.7607 24.3095 28.9316 23.7355 28.9274H3.90219C3.32819 28.9316 2.76655 28.7607 2.29219 28.4374C2.12786 28.3337 1.97533 28.2124 1.83719 28.0758L13.4105 16.5024L13.8188 16.0941L14.2272 16.5024L25.8005 28.0758Z" fill="#2196F3"/>
<path d="M26.1621 27.6208C25.9557 27.9516 25.6763 28.231 25.3455 28.4374L13.4105 16.5024C13.1873 16.2747 13.191 15.909 13.4188 15.6858C13.6433 15.4657 14.0026 15.4657 14.2272 15.6858L26.1621 27.6208Z" fill="#FAFAFA"/>
<path d="M22.2888 8.44077L14.2272 16.5024L2.29219 28.4374C1.96133 28.231 1.68199 27.9516 1.47555 27.6208L21.2855 7.81077L22.2888 8.44077Z" fill="#FFC107"/>
<path d="M21.4021 0.92749C17.8602 0.931975 14.99 3.80219 14.9855 7.34412C14.9874 7.69658 15.0222 8.04811 15.0894 8.39412C15.23 9.29859 15.5673 10.1612 16.0775 10.9211C16.3482 11.3878 16.6609 11.8731 16.991 12.3911C18.8879 15.1143 20.1956 18.2033 20.8305 21.4607C20.8946 21.7764 21.2025 21.9804 21.5182 21.9163C21.7478 21.8697 21.9272 21.6903 21.9738 21.4607C22.6082 18.203 23.9156 15.1136 25.8122 12.3899C26.1447 11.8731 26.455 11.3913 26.7023 10.9584C27.2221 10.1914 27.567 9.31959 27.7127 8.40456C27.7808 8.05511 27.8164 7.70008 27.8188 7.34407C27.8143 3.80219 24.9441 0.931975 21.4021 0.92749Z" fill="#F44336"/>
<path d="M21.4021 10.2608C23.013 10.2608 24.3188 8.95494 24.3188 7.34412C24.3188 5.73331 23.013 4.42748 21.4021 4.42748C19.7913 4.42748 18.4855 5.73331 18.4855 7.34412C18.4855 8.95494 19.7913 10.2608 21.4021 10.2608Z" fill="#C62828"/>
<path d="M7.17267 15.3865C9.26065 15.3865 10.9595 13.6877 10.9595 11.5995C10.9595 11.2693 10.6918 11.0016 10.3616 11.0016H7.96987C7.63968 11.0016 7.37193 11.2693 7.37193 11.5995C7.37193 11.9297 7.63961 12.1975 7.96987 12.1975H9.69393C9.42338 13.3389 8.39554 14.1906 7.17259 14.1906C5.74399 14.1906 4.58163 13.0283 4.58163 11.5996C4.58163 10.171 5.74399 9.00858 7.17259 9.00858C7.80427 9.00858 8.41262 9.23843 8.88566 9.65571C9.13346 9.87422 9.51124 9.85046 9.7296 9.60287C9.94804 9.35522 9.92435 8.97735 9.67677 8.75891C8.98508 8.14875 8.09578 7.81273 7.17259 7.81273C5.08461 7.81273 3.38575 9.51157 3.38575 11.5997C3.38575 13.6878 5.08461 15.3865 7.17267 15.3865Z" fill="white"/>
</g>
</svg>
