<svg width="25" height="25" viewBox="0 0 25 25" fill="none" xmlns="http://www.w3.org/2000/svg">
<path d="M7.77994 11.7027C7.8993 8.47459 8.64259 5.34953 9.96097 3.7002C6.23369 4.6171 3.39618 7.79641 3.00012 11.7027H7.77994Z" fill="white"/>
<path d="M12.4512 4.03931C11.6483 4.03931 10.14 6.61639 9.96094 11.3637H14.9469C14.7679 6.61639 13.2542 4.03931 12.4566 4.03931H12.4512Z" fill="white"/>
<path d="M17.1334 11.7027H21.9132C21.5117 7.79641 18.6742 4.6171 14.9469 3.7002C16.2707 5.34953 17.0086 8.47459 17.1279 11.7027H17.1334Z" fill="white"/>
<path d="M7.78531 13.7029H3.00549C3.40155 17.6092 6.23906 20.7939 9.96634 21.7054C8.64253 20.0561 7.90467 16.931 7.78531 13.7029Z" fill="white"/>
<path d="M9.96631 14.042C10.1453 18.7893 11.659 21.3663 12.4566 21.3663C13.2541 21.3663 14.7678 18.7893 14.9469 14.042H9.96631Z" fill="white"/>
<path d="M17.1279 13.7029C17.0086 16.931 16.2653 20.0561 14.9469 21.7054C18.6742 20.7885 21.5117 17.6092 21.9078 13.7029H17.1279Z" fill="white"/>
</svg>
